<?xml version="1.0" encoding="UTF-8"?><svg xmlns:svg="http://www.w3.org/2000/svg" xmlns="http://www.w3.org/2000/svg" xmlns:xlink="http://www.w3.org/1999/xlink" version="2.0" width="1200" height="2060" ><style >
svg {
  font-family: Helvetica, Arial, sans-serif;
  font-size: 11px;
}
rect {
  stroke-linecap: butt;
  stroke-width: 3;
  stroke: #fff;
/*  stroke-opacity: 1; */
}
rect:hover {
  stroke: #fff;
/*  stroke-opacity: 1; /*
}
polygon { fill: #000; }</style><defs ><polygon id="ahead" points="0 0, -12 4, -12 -4" /><filter id="glow" x="0" y="0" ><feGaussianBlur in="SourceAlpha" stdDeviation="2" result="blurred" /><feFlood flood-color="#fff" /><feComposite operator="in" in2="blurred" /><feComponentTransfer ><feFuncA type="linear" slope="10" intercept="0" /></feComponentTransfer><feMerge ><feMergeNode /><feMergeNode in="SourceGraphic" /></feMerge></filter></defs><g ><text x="60.0" y="20.0" text-anchor="middle" alignment-baseline="middle" fill="#000" >c10</text><text x="60.0" y="1020.0" text-anchor="middle" alignment-baseline="middle" fill="#aaa" >c10</text><text x="180.0" y="20.0" text-anchor="middle" alignment-baseline="middle" fill="#000" >c11</text><text x="180.0" y="1020.0" text-anchor="middle" alignment-baseline="middle" fill="#aaa" >c11</text><text x="300.0" y="20.0" text-anchor="middle" alignment-baseline="middle" fill="#000" >c12</text><text x="300.0" y="1020.0" text-anchor="middle" alignment-baseline="middle" fill="#aaa" >c12</text><text x="420.0" y="20.0" text-anchor="middle" alignment-baseline="middle" fill="#000" >c13</text><text x="420.0" y="1020.0" text-anchor="middle" alignment-baseline="middle" fill="#aaa" >c13</text><text x="540.0" y="20.0" text-anchor="middle" alignment-baseline="middle" fill="#000" >c14</text><text x="540.0" y="1020.0" text-anchor="middle" alignment-baseline="middle" fill="#aaa" >c14</text><text x="660.0" y="20.0" text-anchor="middle" alignment-baseline="middle" fill="#000" >n1</text><text x="660.0" y="1020.0" text-anchor="middle" alignment-baseline="middle" fill="#aaa" >n1</text><text x="780.0" y="20.0" text-anchor="middle" alignment-baseline="middle" fill="#000" >n2</text><text x="780.0" y="1020.0" text-anchor="middle" alignment-baseline="middle" fill="#aaa" >n2</text><text x="900.0" y="20.0" text-anchor="middle" alignment-baseline="middle" fill="#000" >n3</text><text x="900.0" y="1020.0" text-anchor="middle" alignment-baseline="middle" fill="#aaa" >n3</text><text x="1020.0" y="20.0" text-anchor="middle" alignment-baseline="middle" fill="#000" >n4</text><text x="1020.0" y="1020.0" text-anchor="middle" alignment-baseline="middle" fill="#aaa" >n4</text><text x="1140.0" y="20.0" text-anchor="middle" alignment-baseline="middle" fill="#000" >n5</text><text x="1140.0" y="1020.0" text-anchor="middle" alignment-baseline="middle" fill="#aaa" >n5</text></g><g ><line stroke="#ccc" x1="60.0" y1="30.0" x2="60.0" y2="1970.0" /><line stroke="#ccc" x1="180.0" y1="30.0" x2="180.0" y2="1970.0" /><line stroke="#ccc" x1="300.0" y1="30.0" x2="300.0" y2="1970.0" /><line stroke="#ccc" x1="420.0" y1="30.0" x2="420.0" y2="1970.0" /><line stroke="#ccc" x1="540.0" y1="30.0" x2="540.0" y2="1970.0" /><line stroke="#ccc" x1="660.0" y1="30.0" x2="660.0" y2="1970.0" /><line stroke="#ccc" x1="780.0" y1="30.0" x2="780.0" y2="1970.0" /><line stroke="#ccc" x1="900.0" y1="30.0" x2="900.0" y2="1970.0" /><line stroke="#ccc" x1="1020.0" y1="30.0" x2="1020.0" y2="1970.0" /><line stroke="#ccc" x1="1140.0" y1="30.0" x2="1140.0" y2="1970.0" /></g><g ><g transform="translate(60.0 50.0) rotate(1.0609116902642277) " ><rect x="0" y="-2.5" height="5" width="1076.1851693112621" fill="#81BFFC" ><title >c10 → n5 {:echo "Please echo 49", :type "echo", :msg_id 1}</title></rect><use xlink:href="#ahead" x="1080.1851693112621" y="0" /><text text-anchor="middle" x="540.0925846556311" y="-4" transform="" filter="url(#glow)" style="fill: #fff" >echo {:echo "Please echo 49"}</text><text text-anchor="middle" x="540.0925846556311" y="-4" transform="" >echo {:echo "Please echo 49"}</text></g><g transform="translate(1140.0 90.0) rotate(178.93908830973578) " ><rect x="0" y="-2.5" height="5" width="1076.1851693112621" fill="#81BFFC" ><title >n5 → c10 {:in_reply_to 1, :echo "Please echo 49", :msg_id 1, :type "echo_ok"}</title></rect><use xlink:href="#ahead" x="1080.1851693112621" y="0" /><text text-anchor="middle" x="540.0925846556311" y="-4" transform="rotate(180 540.0925846556311 0)" filter="url(#glow)" style="fill: #fff" >echo_ok {:echo "Please echo 49"}</text><text text-anchor="middle" x="540.0925846556311" y="-4" transform="rotate(180 540.0925846556311 0)" >echo_ok {:echo "Please echo 49"}</text></g><g transform="translate(180.0 130.0) rotate(1.5911402711945872) " ><rect x="0" y="-2.5" height="5" width="716.2777242147642" fill="#81BFFC" ><title >c11 → n3 {:echo "Please echo 59", :type "echo", :msg_id 1}</title></rect><use xlink:href="#ahead" x="720.2777242147642" y="0" /><text text-anchor="middle" x="360.1388621073821" y="-4" transform="" filter="url(#glow)" style="fill: #fff" >echo {:echo "Please echo 59"}</text><text text-anchor="middle" x="360.1388621073821" y="-4" transform="" >echo {:echo "Please echo 59"}</text></g><g transform="translate(900.0 170.0) rotate(178.4088597288054) " ><rect x="0" y="-2.5" height="5" width="716.2777242147642" fill="#81BFFC" ><title >n3 → c11 {:in_reply_to 1, :echo "Please echo 59", :msg_id 1, :type "echo_ok"}</title></rect><use xlink:href="#ahead" x="720.2777242147642" y="0" /><text text-anchor="middle" x="360.1388621073821" y="-4" transform="rotate(180 360.1388621073821 0)" filter="url(#glow)" style="fill: #fff" >echo_ok {:echo "Please echo 59"}</text><text text-anchor="middle" x="360.1388621073821" y="-4" transform="rotate(180 360.1388621073821 0)" >echo_ok {:echo "Please echo 59"}</text></g><g transform="translate(300.0 210.0) rotate(1.5911402711945872) " ><rect x="0" y="-2.5" height="5" width="716.2777242147642" fill="#81BFFC" ><title >c12 → n4 {:echo "Please echo 111", :type "echo", :msg_id 1}</title></rect><use xlink:href="#ahead" x="720.2777242147642" y="0" /><text text-anchor="middle" x="360.1388621073821" y="-4" transform="" filter="url(#glow)" style="fill: #fff" >echo {:echo "Please echo 111"}</text><text text-anchor="middle" x="360.1388621073821" y="-4" transform="" >echo {:echo "Please echo 111"}</text></g><g transform="translate(1020.0 250.0) rotate(178.4088597288054) " ><rect x="0" y="-2.5" height="5" width="716.2777242147642" fill="#81BFFC" ><title >n4 → c12 {:in_reply_to 1, :echo "Please echo 111", :msg_id 1, :type "echo_ok"}</title></rect><use xlink:href="#ahead" x="720.2777242147642" y="0" /><text text-anchor="middle" x="360.1388621073821" y="-4" transform="rotate(180 360.1388621073821 0)" filter="url(#glow)" style="fill: #fff" >echo_ok {:echo "Please echo 111"}</text><text text-anchor="middle" x="360.1388621073821" y="-4" transform="rotate(180 360.1388621073821 0)" >echo_ok {:echo "Please echo 111"}</text></g><g transform="translate(300.0 290.0) rotate(1.5911402711945872) " ><rect x="0" y="-2.5" height="5" width="716.2777242147642" fill="#81BFFC" ><title >c12 → n4 {:echo "Please echo 27", :type "echo", :msg_id 2}</title></rect><use xlink:href="#ahead" x="720.2777242147642" y="0" /><text text-anchor="middle" x="360.1388621073821" y="-4" transform="" filter="url(#glow)" style="fill: #fff" >echo {:echo "Please echo 27"}</text><text text-anchor="middle" x="360.1388621073821" y="-4" transform="" >echo {:echo "Please echo 27"}</text></g><g transform="translate(1020.0 330.0) rotate(178.4088597288054) " ><rect x="0" y="-2.5" height="5" width="716.2777242147642" fill="#81BFFC" ><title >n4 → c12 {:in_reply_to 2, :echo "Please echo 27", :msg_id 2, :type "echo_ok"}</title></rect><use xlink:href="#ahead" x="720.2777242147642" y="0" /><text text-anchor="middle" x="360.1388621073821" y="-4" transform="rotate(180 360.1388621073821 0)" filter="url(#glow)" style="fill: #fff" >echo_ok {:echo "Please echo 27"}</text><text text-anchor="middle" x="360.1388621073821" y="-4" transform="rotate(180 360.1388621073821 0)" >echo_ok {:echo "Please echo 27"}</text></g><g transform="translate(180.0 370.0) rotate(1.5911402711945872) " ><rect x="0" y="-2.5" height="5" width="716.2777242147642" fill="#81BFFC" ><title >c11 → n3 {:echo "Please echo 26", :type "echo", :msg_id 2}</title></rect><use xlink:href="#ahead" x="720.2777242147642" y="0" /><text text-anchor="middle" x="360.1388621073821" y="-4" transform="" filter="url(#glow)" style="fill: #fff" >echo {:echo "Please echo 26"}</text><text text-anchor="middle" x="360.1388621073821" y="-4" transform="" >echo {:echo "Please echo 26"}</text></g><g transform="translate(900.0 410.0) rotate(178.4088597288054) " ><rect x="0" y="-2.5" height="5" width="716.2777242147642" fill="#81BFFC" ><title >n3 → c11 {:in_reply_to 2, :echo "Please echo 26", :msg_id 2, :type "echo_ok"}</title></rect><use xlink:href="#ahead" x="720.2777242147642" y="0" /><text text-anchor="middle" x="360.1388621073821" y="-4" transform="rotate(180 360.1388621073821 0)" filter="url(#glow)" style="fill: #fff" >echo_ok {:echo "Please echo 26"}</text><text text-anchor="middle" x="360.1388621073821" y="-4" transform="rotate(180 360.1388621073821 0)" >echo_ok {:echo "Please echo 26"}</text></g><g transform="translate(420.0 450.0) rotate(3.179830119864234) " ><rect x="0" y="-2.5" height="5" width="356.5551275463989" fill="#81BFFC" ><title >c13 → n2 {:echo "Please echo 31", :type "echo", :msg_id 1}</title></rect><use xlink:href="#ahead" x="360.5551275463989" y="0" /><text text-anchor="middle" x="180.27756377319946" y="-4" transform="" filter="url(#glow)" style="fill: #fff" >echo {:echo "Please echo 31"}</text><text text-anchor="middle" x="180.27756377319946" y="-4" transform="" >echo {:echo "Please echo 31"}</text></g><g transform="translate(780.0 490.0) rotate(176.82016988013578) " ><rect x="0" y="-2.5" height="5" width="356.5551275463989" fill="#81BFFC" ><title >n2 → c13 {:in_reply_to 1, :echo "Please echo 31", :msg_id 1, :type "echo_ok"}</title></rect><use xlink:href="#ahead" x="360.5551275463989" y="0" /><text text-anchor="middle" x="180.27756377319946" y="-4" transform="rotate(180 180.27756377319946 0)" filter="url(#glow)" style="fill: #fff" >echo_ok {:echo "Please echo 31"}</text><text text-anchor="middle" x="180.27756377319946" y="-4" transform="rotate(180 180.27756377319946 0)" >echo_ok {:echo "Please echo 31"}</text></g><g transform="translate(60.0 530.0) rotate(1.0609116902642277) " ><rect x="0" y="-2.5" height="5" width="1076.1851693112621" fill="#81BFFC" ><title >c10 → n5 {:echo "Please echo 99", :type "echo", :msg_id 2}</title></rect><use xlink:href="#ahead" x="1080.1851693112621" y="0" /><text text-anchor="middle" x="540.0925846556311" y="-4" transform="" filter="url(#glow)" style="fill: #fff" >echo {:echo "Please echo 99"}</text><text text-anchor="middle" x="540.0925846556311" y="-4" transform="" >echo {:echo "Please echo 99"}</text></g><g transform="translate(1140.0 570.0) rotate(178.93908830973578) " ><rect x="0" y="-2.5" height="5" width="1076.1851693112621" fill="#81BFFC" ><title >n5 → c10 {:in_reply_to 2, :echo "Please echo 99", :msg_id 2, :type "echo_ok"}</title></rect><use xlink:href="#ahead" x="1080.1851693112621" y="0" /><text text-anchor="middle" x="540.0925846556311" y="-4" transform="rotate(180 540.0925846556311 0)" filter="url(#glow)" style="fill: #fff" >echo_ok {:echo "Please echo 99"}</text><text text-anchor="middle" x="540.0925846556311" y="-4" transform="rotate(180 540.0925846556311 0)" >echo_ok {:echo "Please echo 99"}</text></g><g transform="translate(180.0 610.0) rotate(1.5911402711945872) " ><rect x="0" y="-2.5" height="5" width="716.2777242147642" fill="#81BFFC" ><title >c11 → n3 {:echo "Please echo 49", :type "echo", :msg_id 3}</title></rect><use xlink:href="#ahead" x="720.2777242147642" y="0" /><text text-anchor="middle" x="360.1388621073821" y="-4" transform="" filter="url(#glow)" style="fill: #fff" >echo {:echo "Please echo 49"}</text><text text-anchor="middle" x="360.1388621073821" y="-4" transform="" >echo {:echo "Please echo 49"}</text></g><g transform="translate(900.0 650.0) rotate(178.4088597288054) " ><rect x="0" y="-2.5" height="5" width="716.2777242147642" fill="#81BFFC" ><title >n3 → c11 {:in_reply_to 3, :echo "Please echo 49", :msg_id 3, :type "echo_ok"}</title></rect><use xlink:href="#ahead" x="720.2777242147642" y="0" /><text text-anchor="middle" x="360.1388621073821" y="-4" transform="rotate(180 360.1388621073821 0)" filter="url(#glow)" style="fill: #fff" >echo_ok {:echo "Please echo 49"}</text><text text-anchor="middle" x="360.1388621073821" y="-4" transform="rotate(180 360.1388621073821 0)" >echo_ok {:echo "Please echo 49"}</text></g><g transform="translate(180.0 690.0) rotate(1.5911402711945872) " ><rect x="0" y="-2.5" height="5" width="716.2777242147642" fill="#81BFFC" ><title >c11 → n3 {:echo "Please echo 96", :type "echo", :msg_id 4}</title></rect><use xlink:href="#ahead" x="720.2777242147642" y="0" /><text text-anchor="middle" x="360.1388621073821" y="-4" transform="" filter="url(#glow)" style="fill: #fff" >echo {:echo "Please echo 96"}</text><text text-anchor="middle" x="360.1388621073821" y="-4" transform="" >echo {:echo "Please echo 96"}</text></g><g transform="translate(900.0 730.0) rotate(178.4088597288054) " ><rect x="0" y="-2.5" height="5" width="716.2777242147642" fill="#81BFFC" ><title >n3 → c11 {:in_reply_to 4, :echo "Please echo 96", :msg_id 4, :type "echo_ok"}</title></rect><use xlink:href="#ahead" x="720.2777242147642" y="0" /><text text-anchor="middle" x="360.1388621073821" y="-4" transform="rotate(180 360.1388621073821 0)" filter="url(#glow)" style="fill: #fff" >echo_ok {:echo "Please echo 96"}</text><text text-anchor="middle" x="360.1388621073821" y="-4" transform="rotate(180 360.1388621073821 0)" >echo_ok {:echo "Please echo 96"}</text></g><g transform="translate(60.0 770.0) rotate(1.0609116902642277) " ><rect x="0" y="-2.5" height="5" width="1076.1851693112621" fill="#81BFFC" ><title >c10 → n5 {:echo "Please echo 24", :type "echo", :msg_id 3}</title></rect><use xlink:href="#ahead" x="1080.1851693112621" y="0" /><text text-anchor="middle" x="540.0925846556311" y="-4" transform="" filter="url(#glow)" style="fill: #fff" >echo {:echo "Please echo 24"}</text><text text-anchor="middle" x="540.0925846556311" y="-4" transform="" >echo {:echo "Please echo 24"}</text></g><g transform="translate(1140.0 810.0) rotate(178.93908830973578) " ><rect x="0" y="-2.5" height="5" width="1076.1851693112621" fill="#81BFFC" ><title >n5 → c10 {:in_reply_to 3, :echo "Please echo 24", :msg_id 3, :type "echo_ok"}</title></rect><use xlink:href="#ahead" x="1080.1851693112621" y="0" /><text text-anchor="middle" x="540.0925846556311" y="-4" transform="rotate(180 540.0925846556311 0)" filter="url(#glow)" style="fill: #fff" >echo_ok {:echo "Please echo 24"}</text><text text-anchor="middle" x="540.0925846556311" y="-4" transform="rotate(180 540.0925846556311 0)" >echo_ok {:echo "Please echo 24"}</text></g><g transform="translate(300.0 850.0) rotate(1.5911402711945872) " ><rect x="0" y="-2.5" height="5" width="716.2777242147642" fill="#81BFFC" ><title >c12 → n4 {:echo "Please echo 11", :type "echo", :msg_id 3}</title></rect><use xlink:href="#ahead" x="720.2777242147642" y="0" /><text text-anchor="middle" x="360.1388621073821" y="-4" transform="" filter="url(#glow)" style="fill: #fff" >echo {:echo "Please echo 11"}</text><text text-anchor="middle" x="360.1388621073821" y="-4" transform="" >echo {:echo "Please echo 11"}</text></g><g transform="translate(1020.0 890.0) rotate(178.4088597288054) " ><rect x="0" y="-2.5" height="5" width="716.2777242147642" fill="#81BFFC" ><title >n4 → c12 {:in_reply_to 3, :echo "Please echo 11", :msg_id 3, :type "echo_ok"}</title></rect><use xlink:href="#ahead" x="720.2777242147642" y="0" /><text text-anchor="middle" x="360.1388621073821" y="-4" transform="rotate(180 360.1388621073821 0)" filter="url(#glow)" style="fill: #fff" >echo_ok {:echo "Please echo 11"}</text><text text-anchor="middle" x="360.1388621073821" y="-4" transform="rotate(180 360.1388621073821 0)" >echo_ok {:echo "Please echo 11"}</text></g><g transform="translate(540.0 930.0) rotate(9.462322208025618) " ><rect x="0" y="-2.5" height="5" width="117.6552506059644" fill="#81BFFC" ><title >c14 → n1 {:echo "Please echo 12", :type "echo", :msg_id 1}</title></rect><use xlink:href="#ahead" x="121.6552506059644" y="0" /><text text-anchor="middle" x="60.8276253029822" y="-4" transform="" filter="url(#glow)" style="fill: #fff" >echo {:echo "Please echo 12"}</text><text text-anchor="middle" x="60.8276253029822" y="-4" transform="" >echo {:echo "Please echo 12"}</text></g><g transform="translate(660.0 970.0) rotate(170.53767779197437) " ><rect x="0" y="-2.5" height="5" width="117.6552506059644" fill="#81BFFC" ><title >n1 → c14 {:in_reply_to 1, :echo "Please echo 12", :msg_id 1, :type "echo_ok"}</title></rect><use xlink:href="#ahead" x="121.6552506059644" y="0" /><text text-anchor="middle" x="60.8276253029822" y="-4" transform="rotate(180 60.8276253029822 0)" filter="url(#glow)" style="fill: #fff" >echo_ok {:echo "Please echo 12"}</text><text text-anchor="middle" x="60.8276253029822" y="-4" transform="rotate(180 60.8276253029822 0)" >echo_ok {:echo "Please echo 12"}</text></g><g transform="translate(540.0 1010.0) rotate(9.462322208025618) " ><rect x="0" y="-2.5" height="5" width="117.6552506059644" fill="#81BFFC" ><title >c14 → n1 {:echo "Please echo 52", :type "echo", :msg_id 2}</title></rect><use xlink:href="#ahead" x="121.6552506059644" y="0" /><text text-anchor="middle" x="60.8276253029822" y="-4" transform="" filter="url(#glow)" style="fill: #fff" >echo {:echo "Please echo 52"}</text><text text-anchor="middle" x="60.8276253029822" y="-4" transform="" >echo {:echo "Please echo 52"}</text></g><g transform="translate(660.0 1050.0) rotate(170.53767779197437) " ><rect x="0" y="-2.5" height="5" width="117.6552506059644" fill="#81BFFC" ><title >n1 → c14 {:in_reply_to 2, :echo "Please echo 52", :msg_id 2, :type "echo_ok"}</title></rect><use xlink:href="#ahead" x="121.6552506059644" y="0" /><text text-anchor="middle" x="60.8276253029822" y="-4" transform="rotate(180 60.8276253029822 0)" filter="url(#glow)" style="fill: #fff" >echo_ok {:echo "Please echo 52"}</text><text text-anchor="middle" x="60.8276253029822" y="-4" transform="rotate(180 60.8276253029822 0)" >echo_ok {:echo "Please echo 52"}</text></g><g transform="translate(60.0 1090.0) rotate(1.0609116902642277) " ><rect x="0" y="-2.5" height="5" width="1076.1851693112621" fill="#81BFFC" ><title >c10 → n5 {:echo "Please echo 2", :type "echo", :msg_id 4}</title></rect><use xlink:href="#ahead" x="1080.1851693112621" y="0" /><text text-anchor="middle" x="540.0925846556311" y="-4" transform="" filter="url(#glow)" style="fill: #fff" >echo {:echo "Please echo 2"}</text><text text-anchor="middle" x="540.0925846556311" y="-4" transform="" >echo {:echo "Please echo 2"}</text></g><g transform="translate(1140.0 1130.0) rotate(178.93908830973578) " ><rect x="0" y="-2.5" height="5" width="1076.1851693112621" fill="#81BFFC" ><title >n5 → c10 {:in_reply_to 4, :echo "Please echo 2", :msg_id 4, :type "echo_ok"}</title></rect><use xlink:href="#ahead" x="1080.1851693112621" y="0" /><text text-anchor="middle" x="540.0925846556311" y="-4" transform="rotate(180 540.0925846556311 0)" filter="url(#glow)" style="fill: #fff" >echo_ok {:echo "Please echo 2"}</text><text text-anchor="middle" x="540.0925846556311" y="-4" transform="rotate(180 540.0925846556311 0)" >echo_ok {:echo "Please echo 2"}</text></g><g transform="translate(300.0 1170.0) rotate(1.5911402711945872) " ><rect x="0" y="-2.5" height="5" width="716.2777242147642" fill="#81BFFC" ><title >c12 → n4 {:echo "Please echo 112", :type "echo", :msg_id 4}</title></rect><use xlink:href="#ahead" x="720.2777242147642" y="0" /><text text-anchor="middle" x="360.1388621073821" y="-4" transform="" filter="url(#glow)" style="fill: #fff" >echo {:echo "Please echo 112"}</text><text text-anchor="middle" x="360.1388621073821" y="-4" transform="" >echo {:echo "Please echo 112"}</text></g><g transform="translate(1020.0 1210.0) rotate(178.4088597288054) " ><rect x="0" y="-2.5" height="5" width="716.2777242147642" fill="#81BFFC" ><title >n4 → c12 {:in_reply_to 4, :echo "Please echo 112", :msg_id 4, :type "echo_ok"}</title></rect><use xlink:href="#ahead" x="720.2777242147642" y="0" /><text text-anchor="middle" x="360.1388621073821" y="-4" transform="rotate(180 360.1388621073821 0)" filter="url(#glow)" style="fill: #fff" >echo_ok {:echo "Please echo 112"}</text><text text-anchor="middle" x="360.1388621073821" y="-4" transform="rotate(180 360.1388621073821 0)" >echo_ok {:echo "Please echo 112"}</text></g><g transform="translate(420.0 1250.0) rotate(3.179830119864234) " ><rect x="0" y="-2.5" height="5" width="356.5551275463989" fill="#81BFFC" ><title >c13 → n2 {:echo "Please echo 25", :type "echo", :msg_id 2}</title></rect><use xlink:href="#ahead" x="360.5551275463989" y="0" /><text text-anchor="middle" x="180.27756377319946" y="-4" transform="" filter="url(#glow)" style="fill: #fff" >echo {:echo "Please echo 25"}</text><text text-anchor="middle" x="180.27756377319946" y="-4" transform="" >echo {:echo "Please echo 25"}</text></g><g transform="translate(780.0 1290.0) rotate(176.82016988013578) " ><rect x="0" y="-2.5" height="5" width="356.5551275463989" fill="#81BFFC" ><title >n2 → c13 {:in_reply_to 2, :echo "Please echo 25", :msg_id 2, :type "echo_ok"}</title></rect><use xlink:href="#ahead" x="360.5551275463989" y="0" /><text text-anchor="middle" x="180.27756377319946" y="-4" transform="rotate(180 180.27756377319946 0)" filter="url(#glow)" style="fill: #fff" >echo_ok {:echo "Please echo 25"}</text><text text-anchor="middle" x="180.27756377319946" y="-4" transform="rotate(180 180.27756377319946 0)" >echo_ok {:echo "Please echo 25"}</text></g><g transform="translate(420.0 1330.0) rotate(3.179830119864234) " ><rect x="0" y="-2.5" height="5" width="356.5551275463989" fill="#81BFFC" ><title >c13 → n2 {:echo "Please echo 17", :type "echo", :msg_id 3}</title></rect><use xlink:href="#ahead" x="360.5551275463989" y="0" /><text text-anchor="middle" x="180.27756377319946" y="-4" transform="" filter="url(#glow)" style="fill: #fff" >echo {:echo "Please echo 17"}</text><text text-anchor="middle" x="180.27756377319946" y="-4" transform="" >echo {:echo "Please echo 17"}</text></g><g transform="translate(780.0 1370.0) rotate(176.82016988013578) " ><rect x="0" y="-2.5" height="5" width="356.5551275463989" fill="#81BFFC" ><title >n2 → c13 {:in_reply_to 3, :echo "Please echo 17", :msg_id 3, :type "echo_ok"}</title></rect><use xlink:href="#ahead" x="360.5551275463989" y="0" /><text text-anchor="middle" x="180.27756377319946" y="-4" transform="rotate(180 180.27756377319946 0)" filter="url(#glow)" style="fill: #fff" >echo_ok {:echo "Please echo 17"}</text><text text-anchor="middle" x="180.27756377319946" y="-4" transform="rotate(180 180.27756377319946 0)" >echo_ok {:echo "Please echo 17"}</text></g><g transform="translate(300.0 1410.0) rotate(1.5911402711945872) " ><rect x="0" y="-2.5" height="5" width="716.2777242147642" fill="#81BFFC" ><title >c12 → n4 {:echo "Please echo 50", :type "echo", :msg_id 5}</title></rect><use xlink:href="#ahead" x="720.2777242147642" y="0" /><text text-anchor="middle" x="360.1388621073821" y="-4" transform="" filter="url(#glow)" style="fill: #fff" >echo {:echo "Please echo 50"}</text><text text-anchor="middle" x="360.1388621073821" y="-4" transform="" >echo {:echo "Please echo 50"}</text></g><g transform="translate(1020.0 1450.0) rotate(178.4088597288054) " ><rect x="0" y="-2.5" height="5" width="716.2777242147642" fill="#81BFFC" ><title >n4 → c12 {:in_reply_to 5, :echo "Please echo 50", :msg_id 5, :type "echo_ok"}</title></rect><use xlink:href="#ahead" x="720.2777242147642" y="0" /><text text-anchor="middle" x="360.1388621073821" y="-4" transform="rotate(180 360.1388621073821 0)" filter="url(#glow)" style="fill: #fff" >echo_ok {:echo "Please echo 50"}</text><text text-anchor="middle" x="360.1388621073821" y="-4" transform="rotate(180 360.1388621073821 0)" >echo_ok {:echo "Please echo 50"}</text></g><g transform="translate(60.0 1490.0) rotate(1.0609116902642277) " ><rect x="0" y="-2.5" height="5" width="1076.1851693112621" fill="#81BFFC" ><title >c10 → n5 {:echo "Please echo 65", :type "echo", :msg_id 5}</title></rect><use xlink:href="#ahead" x="1080.1851693112621" y="0" /><text text-anchor="middle" x="540.0925846556311" y="-4" transform="" filter="url(#glow)" style="fill: #fff" >echo {:echo "Please echo 65"}</text><text text-anchor="middle" x="540.0925846556311" y="-4" transform="" >echo {:echo "Please echo 65"}</text></g><g transform="translate(1140.0 1530.0) rotate(178.93908830973578) " ><rect x="0" y="-2.5" height="5" width="1076.1851693112621" fill="#81BFFC" ><title >n5 → c10 {:in_reply_to 5, :echo "Please echo 65", :msg_id 5, :type "echo_ok"}</title></rect><use xlink:href="#ahead" x="1080.1851693112621" y="0" /><text text-anchor="middle" x="540.0925846556311" y="-4" transform="rotate(180 540.0925846556311 0)" filter="url(#glow)" style="fill: #fff" >echo_ok {:echo "Please echo 65"}</text><text text-anchor="middle" x="540.0925846556311" y="-4" transform="rotate(180 540.0925846556311 0)" >echo_ok {:echo "Please echo 65"}</text></g><g transform="translate(300.0 1570.0) rotate(1.5911402711945872) " ><rect x="0" y="-2.5" height="5" width="716.2777242147642" fill="#81BFFC" ><title >c12 → n4 {:echo "Please echo 31", :type "echo", :msg_id 6}</title></rect><use xlink:href="#ahead" x="720.2777242147642" y="0" /><text text-anchor="middle" x="360.1388621073821" y="-4" transform="" filter="url(#glow)" style="fill: #fff" >echo {:echo "Please echo 31"}</text><text text-anchor="middle" x="360.1388621073821" y="-4" transform="" >echo {:echo "Please echo 31"}</text></g><g transform="translate(1020.0 1610.0) rotate(178.4088597288054) " ><rect x="0" y="-2.5" height="5" width="716.2777242147642" fill="#81BFFC" ><title >n4 → c12 {:in_reply_to 6, :echo "Please echo 31", :msg_id 6, :type "echo_ok"}</title></rect><use xlink:href="#ahead" x="720.2777242147642" y="0" /><text text-anchor="middle" x="360.1388621073821" y="-4" transform="rotate(180 360.1388621073821 0)" filter="url(#glow)" style="fill: #fff" >echo_ok {:echo "Please echo 31"}</text><text text-anchor="middle" x="360.1388621073821" y="-4" transform="rotate(180 360.1388621073821 0)" >echo_ok {:echo "Please echo 31"}</text></g><g transform="translate(420.0 1650.0) rotate(3.179830119864234) " ><rect x="0" y="-2.5" height="5" width="356.5551275463989" fill="#81BFFC" ><title >c13 → n2 {:echo "Please echo 65", :type "echo", :msg_id 4}</title></rect><use xlink:href="#ahead" x="360.5551275463989" y="0" /><text text-anchor="middle" x="180.27756377319946" y="-4" transform="" filter="url(#glow)" style="fill: #fff" >echo {:echo "Please echo 65"}</text><text text-anchor="middle" x="180.27756377319946" y="-4" transform="" >echo {:echo "Please echo 65"}</text></g><g transform="translate(780.0 1690.0) rotate(176.82016988013578) " ><rect x="0" y="-2.5" height="5" width="356.5551275463989" fill="#81BFFC" ><title >n2 → c13 {:in_reply_to 4, :echo "Please echo 65", :msg_id 4, :type "echo_ok"}</title></rect><use xlink:href="#ahead" x="360.5551275463989" y="0" /><text text-anchor="middle" x="180.27756377319946" y="-4" transform="rotate(180 180.27756377319946 0)" filter="url(#glow)" style="fill: #fff" >echo_ok {:echo "Please echo 65"}</text><text text-anchor="middle" x="180.27756377319946" y="-4" transform="rotate(180 180.27756377319946 0)" >echo_ok {:echo "Please echo 65"}</text></g><g transform="translate(420.0 1730.0) rotate(3.179830119864234) " ><rect x="0" y="-2.5" height="5" width="356.5551275463989" fill="#81BFFC" ><title >c13 → n2 {:echo "Please echo 15", :type "echo", :msg_id 5}</title></rect><use xlink:href="#ahead" x="360.5551275463989" y="0" /><text text-anchor="middle" x="180.27756377319946" y="-4" transform="" filter="url(#glow)" style="fill: #fff" >echo {:echo "Please echo 15"}</text><text text-anchor="middle" x="180.27756377319946" y="-4" transform="" >echo {:echo "Please echo 15"}</text></g><g transform="translate(780.0 1770.0) rotate(176.82016988013578) " ><rect x="0" y="-2.5" height="5" width="356.5551275463989" fill="#81BFFC" ><title >n2 → c13 {:in_reply_to 5, :echo "Please echo 15", :msg_id 5, :type "echo_ok"}</title></rect><use xlink:href="#ahead" x="360.5551275463989" y="0" /><text text-anchor="middle" x="180.27756377319946" y="-4" transform="rotate(180 180.27756377319946 0)" filter="url(#glow)" style="fill: #fff" >echo_ok {:echo "Please echo 15"}</text><text text-anchor="middle" x="180.27756377319946" y="-4" transform="rotate(180 180.27756377319946 0)" >echo_ok {:echo "Please echo 15"}</text></g><g transform="translate(300.0 1810.0) rotate(1.5911402711945872) " ><rect x="0" y="-2.5" height="5" width="716.2777242147642" fill="#81BFFC" ><title >c12 → n4 {:echo "Please echo 102", :type "echo", :msg_id 7}</title></rect><use xlink:href="#ahead" x="720.2777242147642" y="0" /><text text-anchor="middle" x="360.1388621073821" y="-4" transform="" filter="url(#glow)" style="fill: #fff" >echo {:echo "Please echo 102"}</text><text text-anchor="middle" x="360.1388621073821" y="-4" transform="" >echo {:echo "Please echo 102"}</text></g><g transform="translate(1020.0 1850.0) rotate(178.4088597288054) " ><rect x="0" y="-2.5" height="5" width="716.2777242147642" fill="#81BFFC" ><title >n4 → c12 {:in_reply_to 7, :echo "Please echo 102", :msg_id 7, :type "echo_ok"}</title></rect><use xlink:href="#ahead" x="720.2777242147642" y="0" /><text text-anchor="middle" x="360.1388621073821" y="-4" transform="rotate(180 360.1388621073821 0)" filter="url(#glow)" style="fill: #fff" >echo_ok {:echo "Please echo 102"}</text><text text-anchor="middle" x="360.1388621073821" y="-4" transform="rotate(180 360.1388621073821 0)" >echo_ok {:echo "Please echo 102"}</text></g><g transform="translate(180.0 1890.0) rotate(1.5911402711945872) " ><rect x="0" y="-2.5" height="5" width="716.2777242147642" fill="#81BFFC" ><title >c11 → n3 {:echo "Please echo 106", :type "echo", :msg_id 5}</title></rect><use xlink:href="#ahead" x="720.2777242147642" y="0" /><text text-anchor="middle" x="360.1388621073821" y="-4" transform="" filter="url(#glow)" style="fill: #fff" >echo {:echo "Please echo 106"}</text><text text-anchor="middle" x="360.1388621073821" y="-4" transform="" >echo {:echo "Please echo 106"}</text></g><g transform="translate(900.0 1930.0) rotate(178.4088597288054) " ><rect x="0" y="-2.5" height="5" width="716.2777242147642" fill="#81BFFC" ><title >n3 → c11 {:in_reply_to 5, :echo "Please echo 106", :msg_id 5, :type "echo_ok"}</title></rect><use xlink:href="#ahead" x="720.2777242147642" y="0" /><text text-anchor="middle" x="360.1388621073821" y="-4" transform="rotate(180 360.1388621073821 0)" filter="url(#glow)" style="fill: #fff" >echo_ok {:echo "Please echo 106"}</text><text text-anchor="middle" x="360.1388621073821" y="-4" transform="rotate(180 360.1388621073821 0)" >echo_ok {:echo "Please echo 106"}</text></g></g></svg>